<svg fill="none" height="24" viewBox="0 0 24 24" width="24" xmlns="http://www.w3.org/2000/svg" xmlns:xlink="http://www.w3.org/1999/xlink"><linearGradient id="paint0_linear_96_377" gradientUnits="userSpaceOnUse" x1="1.249" x2="22.75" y1="1.25" y2="22.753"><stop offset="0" stop-color="#b288bd"/><stop offset="1" stop-color="#65008d"/></linearGradient><g clip-rule="evenodd" fill="url(#paint0_linear_96_377)" fill-rule="evenodd"><path d="m10.9421 3.77849-.77 1.55443c-.18389.37117-.63384.52301-1.005.33914-.37117-.18386-.52301-.63381-.33915-1.00498l.7714-1.55722c.53195-1.06821 1.36025-1.85986 2.40805-1.85986 1.049 0 1.8747.79304 2.4016 1.86207l1.7603 3.55337c.0533.11001.1798.26484.37.40643.1899.14147.3758.21942.4979.23996l3.1858.53425c1.1515.1937 2.1166.75879 2.4297 1.74204.3129.98248-.1457 2.00368-.974 2.83408l-.0043.0043-2.644 2.6075c-.2949.2909-.7697.2876-1.0606-.0074-.2909-.2949-.2876-.7697.0074-1.0606l2.6417-2.6053c.6379-.6405.6736-1.1004.6045-1.3174-.0689-.21647-.3627-.56886-1.2488-.71794l-3.1858-.53425c-.4173-.0702-.8211-.27459-1.1455-.51622-.3234-.24087-.6356-.56887-.8221-.95155l-1.7574-3.54765c-.4219-.85624-.8496-1.02569-1.0564-1.02569-.2081 0-.6385.17171-1.0653 1.02849z"/><path d="m8.008 7.7654c.12955.39344-.08437.8174-.47781.94695-.1.03293-.20442.05999-.31169.07834l-.00265.00046-3.19155.53425c-.88756.14913-1.17955.50133-1.24787.7169-.06917.2183-.03183.6799.60535 1.3219l2.4815 2.5002c.32195.3243.53707.7578.65566 1.1752.11873.4179.16295.8979.06444 1.3407l-.0011.0049-.71045 3.0951c-.26509 1.1542.00261 1.5797.14102 1.6815.13499.0992.61316.229 1.62484-.3759l2.99741-1.7878c.4166-.2442.9156-.3449 1.3736-.3449.4574 0 .9568.1005 1.3714.348l2.9909 1.7839c1.0202.6071 1.4976.4776 1.6301.3803.1353-.0994.403-.5224.1369-1.6856l-.0716-.3121c-.0927-.4037.1595-.8061.5632-.8987.4037-.0927.8061.1594.8988.5632l.0717.3125c.2943 1.2865.1969 2.5628-.711 3.2296-.9106.6688-2.1543.3729-3.2853-.3002l-2.9924-1.7848c-.1258-.0751-.342-.1361-.6027-.1361-.2586 0-.4791.06-.6131.1379l-2.98812 1.7822c-1.12943.6751-2.37267.9664-3.28312.297-.90721-.6669-1.00972-1.9402-.71451-3.2256l.70975-3.0921c.03108-.1419.02501-.3617-.04356-.603-.06902-.243-.1791-.4295-.2774-.5286l-2.4815-2.5002c-.8237-.8299-1.28166-1.8503-.97061-2.8317.3119-.98411 1.27598-1.54931 2.42936-1.74299l3.18965-.53393.00102-.00018c.0255-.00442.05714-.0121.09449-.0244.39344-.12955.8174.08437.94695.4778z"/><path d="m1.46968 1.46967c.2929-.29289.76777-.29289 1.06066 0l19.99996 20.00003c.2929.2929.2929.7677 0 1.0606s-.7677.2929-1.0606 0l-20.00002-19.99997c-.29289-.29289-.29289-.76777 0-1.06066z"/></g></svg>